<svg width="18" height="18" viewBox="0 0 18 18" fill="none" xmlns="http://www.w3.org/2000/svg">
<path d="M18 9.54467V8.46109C18.0002 8.11736 17.8791 7.78459 17.658 7.52137C17.437 7.25814 17.1301 7.08134 16.7915 7.02209L15.8098 6.84918C15.6872 6.45795 15.531 6.07805 15.3429 5.71374L15.9193 4.89721C16.1171 4.61577 16.2092 4.27353 16.1793 3.93083C16.1494 3.58813 15.9995 3.26699 15.756 3.02402L14.9875 2.25552C14.745 2.01015 14.4235 1.85855 14.0799 1.8276C13.7363 1.79666 13.3929 1.88836 13.1105 2.08646L12.2939 2.66282C11.9292 2.4726 11.5487 2.31447 11.1566 2.1902L10.9837 1.20845C10.9244 0.869867 10.7476 0.563037 10.4844 0.341985C10.2212 0.120932 9.8884 -0.000169537 9.54467 1.7814e-07H8.46109C8.11736 -0.000169537 7.78459 0.120932 7.52137 0.341985C7.25814 0.563037 7.08134 0.869867 7.02209 1.20845L6.84918 2.1902C6.45774 2.31459 6.07783 2.47272 5.71374 2.66282L4.89721 2.08646C4.61577 1.88866 4.27353 1.79658 3.93083 1.82646C3.58813 1.85633 3.26699 2.00624 3.02402 2.24976L2.25552 3.01825C2.00966 3.26085 1.85775 3.58275 1.8268 3.92676C1.79584 4.27078 1.88784 4.61462 2.08646 4.89721L2.66282 5.71374C2.47267 6.07847 2.31454 6.45902 2.1902 6.8511L1.20845 7.02402C0.869867 7.08326 0.563037 7.26006 0.341985 7.52329C0.120932 7.78651 -0.000169537 8.11928 1.7814e-07 8.46302V9.54467C-0.000169537 9.8884 0.120932 10.2212 0.341985 10.4844C0.563037 10.7476 0.869867 10.9244 1.20845 10.9837L2.1902 11.1566C2.31453 11.548 2.47267 11.928 2.66282 12.292L2.08646 13.1085C1.88866 13.39 1.79658 13.7322 1.82646 14.0749C1.85633 14.4176 2.00624 14.7388 2.24976 14.9817L3.01825 15.7502C3.26102 15.9941 3.58221 16.1442 3.92501 16.1741C4.26782 16.204 4.61014 16.1117 4.89145 15.9135L5.70797 15.3372C6.07271 15.5273 6.45326 15.6855 6.84534 15.8098L7.01825 16.7915C7.0775 17.1301 7.2543 17.437 7.51752 17.658C7.78075 17.8791 8.11352 18.0002 8.45725 18H9.5389C9.88264 18.0002 10.2154 17.8791 10.4786 17.658C10.7419 17.437 10.9187 17.1301 10.9779 16.7915L11.1508 15.8098C11.544 15.6876 11.9259 15.5314 12.292 15.3429L13.1085 15.9193C13.39 16.1171 13.7322 16.2092 14.0749 16.1793C14.4176 16.1494 14.7388 15.9995 14.9817 15.756L15.7502 14.9875C15.9956 14.745 16.1472 14.4235 16.1782 14.0799C16.2091 13.7363 16.1174 13.3929 15.9193 13.1105L15.3429 12.2939C15.5324 11.9291 15.6899 11.5486 15.8136 11.1566L16.7954 10.9837C17.1333 10.9236 17.4392 10.7465 17.6595 10.4833C17.8798 10.2202 18.0003 9.88785 18 9.54467ZM17.0394 9.54467C17.0397 9.66274 16.9982 9.77711 16.9223 9.8675C16.8463 9.95789 16.7408 10.0184 16.6244 10.0384L15.3429 10.2613C15.2523 10.2764 15.168 10.3173 15.0999 10.3789C15.0318 10.4405 14.9828 10.5204 14.9587 10.609C14.8225 11.1222 14.6203 11.6156 14.3573 12.0768C14.3106 12.157 14.288 12.2491 14.2924 12.3418C14.2969 12.4346 14.3281 12.5241 14.3823 12.5994L15.1278 13.6599C15.1953 13.7564 15.2267 13.8736 15.2166 13.9909C15.2064 14.1082 15.1552 14.2182 15.072 14.3016L14.3036 15.0701C14.2202 15.1533 14.1102 15.2044 13.9928 15.2146C13.8755 15.2248 13.7583 15.1934 13.6619 15.1258L12.5994 14.3823C12.5241 14.3281 12.4346 14.2969 12.3418 14.2924C12.2491 14.288 12.157 14.3106 12.0768 14.3573C11.6143 14.6243 11.119 14.8297 10.6033 14.9683C10.5146 14.9924 10.4348 15.0414 10.3731 15.1095C10.3115 15.1776 10.2707 15.262 10.2555 15.3525L10.0327 16.6282C10.0123 16.7444 9.95166 16.8498 9.86136 16.9257C9.77105 17.0016 9.65687 17.0432 9.5389 17.0432H8.46109C8.34313 17.0432 8.22895 17.0016 8.13864 16.9257C8.04834 16.8498 7.98768 16.7444 7.96734 16.6282L7.74448 15.3429C7.72932 15.2523 7.68851 15.168 7.62687 15.0999C7.56524 15.0318 7.48537 14.9828 7.39673 14.9587C6.88355 14.8225 6.39017 14.6203 5.92891 14.3573C5.84977 14.3119 5.75931 14.2899 5.66812 14.294C5.57693 14.298 5.48879 14.328 5.41402 14.3804L4.35351 15.1239C4.25703 15.1915 4.13986 15.2229 4.02253 15.2127C3.9052 15.2025 3.7952 15.1514 3.71182 15.0682L2.94332 14.2997C2.86016 14.2163 2.809 14.1063 2.79881 13.989C2.78863 13.8717 2.82006 13.7545 2.88761 13.658L3.62344 12.5994C3.67767 12.5241 3.70889 12.4346 3.71332 12.3418C3.71775 12.2491 3.69521 12.157 3.64841 12.0768C3.38149 11.6143 3.17611 11.119 3.03746 10.6033C3.01337 10.5146 2.96437 10.4348 2.89626 10.3731C2.82816 10.3115 2.74381 10.2707 2.65322 10.2555L1.37752 10.0327C1.26115 10.0127 1.15562 9.95212 1.07966 9.86174C1.00369 9.77135 0.962196 9.65697 0.962536 9.5389V8.46109C0.962196 8.34302 1.00369 8.22865 1.07966 8.13826C1.15562 8.04788 1.26115 7.98732 1.37752 7.96734L2.66282 7.74448C2.75342 7.72932 2.83777 7.68851 2.90587 7.62687C2.97397 7.56524 3.02298 7.48537 3.04707 7.39673C3.18315 6.8835 3.38529 6.3901 3.64841 5.92891C3.69521 5.84872 3.71775 5.75667 3.71332 5.66393C3.70889 5.57118 3.67767 5.48171 3.62344 5.40634L2.87992 4.34582C2.81238 4.24935 2.78094 4.13218 2.79113 4.01485C2.80132 3.89752 2.85248 3.78752 2.93564 3.70413L3.70413 2.93564C3.78732 2.85213 3.89737 2.80074 4.0148 2.79054C4.13223 2.78035 4.24948 2.81201 4.34582 2.87992L5.40634 3.62344C5.4813 3.6762 5.5698 3.70641 5.66138 3.71049C5.75295 3.71458 5.84379 3.69237 5.92315 3.64649C6.38573 3.37971 6.88109 3.17433 7.39673 3.03554C7.48537 3.01145 7.56524 2.96245 7.62687 2.89434C7.68851 2.82624 7.72932 2.74189 7.74448 2.6513L7.96734 1.3756C7.98732 1.25923 8.04788 1.1537 8.13826 1.07774C8.22865 1.00177 8.34302 0.960274 8.46109 0.960615H9.54275C9.66082 0.960274 9.77519 1.00177 9.86558 1.07774C9.95597 1.1537 10.0165 1.25923 10.0365 1.3756L10.2613 2.66282C10.2764 2.75342 10.3173 2.83777 10.3789 2.90587C10.4405 2.97397 10.5204 3.02298 10.609 3.04707C11.1223 3.18313 11.6157 3.38527 12.0768 3.64841C12.157 3.69521 12.2491 3.71775 12.3418 3.71332C12.4346 3.70889 12.5241 3.67767 12.5994 3.62344L13.6599 2.87992C13.7564 2.81238 13.8736 2.78094 13.9909 2.79113C14.1082 2.80132 14.2182 2.85248 14.3016 2.93564L15.0701 3.70413C15.1533 3.78752 15.2044 3.89752 15.2146 4.01485C15.2248 4.13218 15.1934 4.24935 15.1258 4.34582L14.3823 5.40634C14.3281 5.48171 14.2969 5.57118 14.2924 5.66393C14.288 5.75667 14.3106 5.84872 14.3573 5.92891C14.6241 6.39149 14.8295 6.88685 14.9683 7.4025C14.9924 7.49113 15.0414 7.571 15.1095 7.63264C15.1776 7.69427 15.262 7.73509 15.3525 7.75024L16.6282 7.9731C16.7446 7.99308 16.8501 8.05364 16.9261 8.14403C17.0021 8.23441 17.0436 8.34879 17.0432 8.46686L17.0394 9.54467ZM9.00288 8.81076C9.43153 8.80507 9.84893 8.67272 10.2025 8.43036C10.5561 8.18799 10.8301 7.84645 10.9901 7.44872C11.15 7.05098 11.1887 6.61482 11.1014 6.19513C11.014 5.77544 10.8044 5.39098 10.499 5.09012C10.1936 4.78927 9.80608 4.58546 9.38513 4.50437C8.96418 4.42327 8.52865 4.46849 8.13334 4.63436C7.73804 4.80022 7.40063 5.07931 7.16358 5.43649C6.92653 5.79368 6.80043 6.213 6.80115 6.64169C6.80673 7.2209 7.04153 7.77431 7.45416 8.18082C7.86679 8.58733 8.42365 8.81383 9.00288 8.81076ZM9.00288 5.42747C9.24134 5.43314 9.47283 5.50903 9.66837 5.64564C9.8639 5.78225 10.0148 5.97351 10.1021 6.19546C10.1895 6.41742 10.2094 6.66022 10.1594 6.89345C10.1095 7.12668 9.99179 7.33999 9.82116 7.50666C9.65052 7.67333 9.43451 7.78596 9.20017 7.83045C8.96583 7.87494 8.72357 7.84931 8.50373 7.75676C8.28388 7.66422 8.09622 7.50888 7.96424 7.31019C7.83227 7.1115 7.76183 6.8783 7.76177 6.63977C7.76683 6.31517 7.90025 6.00579 8.13284 5.77932C8.36544 5.55285 8.67826 5.42772 9.00288 5.43132V5.42747ZM12.9068 11.1912V12.6013C12.9068 12.7287 12.8562 12.8509 12.7661 12.941C12.6761 13.031 12.5539 13.0817 12.4265 13.0817C12.2991 13.0817 12.177 13.031 12.0869 12.941C11.9968 12.8509 11.9462 12.7287 11.9462 12.6013V11.195C11.9427 10.9264 11.8334 10.6701 11.642 10.4816C11.4507 10.2932 11.1927 10.1878 10.9241 10.1883H10.5648L9.50432 11.2315C9.37015 11.3622 9.19022 11.4354 9.00288 11.4354C8.81555 11.4354 8.63562 11.3622 8.50144 11.2315L7.44092 10.1883H7.08165C6.81174 10.1852 6.5516 10.2892 6.35823 10.4776C6.16485 10.6659 6.054 10.9232 6.04995 11.1931V12.6033C6.04995 12.7307 5.99935 12.8528 5.90927 12.9429C5.8192 13.033 5.69703 13.0836 5.56964 13.0836C5.44226 13.0836 5.32009 13.033 5.23002 12.9429C5.13994 12.8528 5.08934 12.7307 5.08934 12.6033V11.195C5.09289 10.67 5.30474 10.1679 5.67831 9.79898C6.05189 9.43009 6.55664 9.2246 7.08165 9.22766H7.62728C7.75315 9.22794 7.87388 9.27761 7.9635 9.36599L9.00288 10.3785L10.0327 9.36599C10.1223 9.27761 10.243 9.22794 10.3689 9.22766H10.9241C11.4475 9.22715 11.9497 9.43376 12.3212 9.80238C12.6927 10.171 12.9033 10.6717 12.9068 11.195V11.1912Z" fill="#B7BDCD"/>
</svg>
