<svg width="16" height="15" viewBox="0 0 16 15" fill="none" xmlns="http://www.w3.org/2000/svg">
<path d="M11.0828 12.3797V13.0872H1.06112V1.06112H11.0828V6.97308L12.1439 5.79406V0.825316C12.1439 0.37055 11.7734 0 11.3018 0H0.842159C0.387393 0 0 0.37055 0 0.825316V13.2893C0 13.7609 0.387393 14.1314 0.842159 14.1314H11.3186C11.7902 14.1314 12.1608 13.7609 12.1608 13.2893V11.3692L11.4871 12.1271C11.3692 12.2282 11.2344 12.3292 11.0828 12.3797Z" fill="#B7BDCD"/>
<path d="M3.11601 3.77283H9.04481C9.34799 3.77283 9.58379 3.53703 9.58379 3.23385C9.58379 2.94752 9.34799 2.69487 9.04481 2.69487H3.11601C2.81283 2.69487 2.57703 2.94752 2.57703 3.23385C2.57703 3.53703 2.81283 3.77283 3.11601 3.77283Z" fill="#B7BDCD"/>
<path d="M3.11601 6.33304H9.04481C9.34799 6.33304 9.58379 6.09724 9.58379 5.79406C9.58379 5.49089 9.34799 5.25508 9.04481 5.25508H3.11601C2.81283 5.25508 2.57703 5.49089 2.57703 5.79406C2.57703 6.09724 2.81283 6.33304 3.11601 6.33304Z" fill="#B7BDCD"/>
<path d="M9.56695 8.35417C9.56695 8.05099 9.33115 7.81519 9.02797 7.81519H3.11601C2.81283 7.81519 2.57703 8.05099 2.57703 8.35417C2.57703 8.6405 2.81283 8.89315 3.11601 8.89315H9.04481C9.33115 8.89315 9.56695 8.6405 9.56695 8.35417Z" fill="#B7BDCD"/>
<path d="M2.57703 10.8975C2.57703 11.2007 2.81283 11.4365 3.11601 11.4365H8.21949L8.40477 10.3754H3.11601C2.81283 10.3754 2.57703 10.6112 2.57703 10.8975Z" fill="#B7BDCD"/>
<path d="M9.43216 11.9924L10.7122 11.6218C10.7628 11.605 10.8133 11.5713 10.847 11.5376L11.2175 11.1334L9.71849 9.7859L9.34794 10.207C9.31425 10.2575 9.28057 10.308 9.28057 10.3586L9.06161 11.6723C9.01108 11.8745 9.21319 12.0597 9.43216 11.9924Z" fill="#B7BDCD"/>
<path d="M13.3343 5.7462L10.1755 9.27082L11.6807 10.6198L14.8395 7.09514L13.3343 5.7462Z" fill="#B7BDCD"/>
<path d="M15.9 5.44031L14.8557 4.4971C14.7378 4.37919 14.5357 4.39604 14.4346 4.51394L13.8114 5.22135L15.3104 6.56881L15.9336 5.86139C16.0347 5.74349 16.0179 5.55822 15.9 5.44031Z" fill="#B7BDCD"/>
</svg>
